<?xml version="1.0" standalone="no"?>
<!DOCTYPE svg PUBLIC "-//W3C//DTD SVG 20010904//EN" "http://www.w3.org/TR/2001/REC-SVG-20010904/DTD/svg10.dtd">
<svg version="1.0" xmlns="http://www.w3.org/2000/svg"
     width="500.000000pt" height="500.000000pt" viewBox="0 0 500.000000 500.000000"
     preserveAspectRatio="xMidYMid meet">

    <g transform="translate(0.000000,500.000000) scale(0.100000,-0.100000)"
       fill="#000000" stroke="none">
        <path
                d="M725 3103 c-148 -86 -273 -161 -277 -167 -10 -14 -10 -668 0 -682 15
-22 553 -324 576 -324 23 0 452 238 549 304 l37 26 0 150 c0 100 -4 150 -11
150 -6 0 -30 -12 -55 -26 l-44 -26 0 -67 c0 -119 6 -113 -240 -255 -121 -69
-227 -126 -235 -126 -9 0 -115 57 -236 128 -153 88 -224 134 -230 150 -12 30
-12 483 0 514 12 32 424 271 466 271 46 -1 446 -235 462 -270 7 -16 12 -74 13
-130 0 -60 4 -103 10 -103 5 0 30 10 55 22 l45 22 0 131 c0 113 -3 134 -17
148 -10 8 -136 83 -281 166 -169 97 -272 151 -290 151 -16 -1 -133 -62 -297
-157z"/>
        <path
                d="M851 2940 c-166 -96 -187 -111 -179 -132 8 -20 324 -198 353 -198 14
0 79 31 145 70 l121 70 -3 -156 -3 -157 -118 -68 c-65 -38 -129 -69 -143 -69
-14 0 -79 32 -144 70 l-119 70 -3 103 -3 102 -50 32 c-27 18 -53 29 -57 25 -5
-5 -7 -82 -6 -172 l3 -163 180 -103 c99 -57 188 -104 198 -104 10 0 101 48
203 107 l184 106 -2 224 -3 225 -56 31 -56 31 -126 -72 c-70 -40 -135 -72
-144 -72 -22 1 -125 61 -130 77 -5 15 101 73 135 73 15 0 34 -6 40 -12 10 -10
24 -7 67 17 30 16 55 34 55 40 0 14 -144 95 -168 95 -9 -1 -87 -41 -171 -90z"/>
        <path
                d="M3616 2740 c-94 -29 -135 -157 -75 -234 85 -108 269 -48 269 87 0
102 -98 177 -194 147z m91 -75 c52 -36 33 -137 -27 -150 -62 -14 -111 47 -90
111 18 53 72 71 117 39z"/>
        <path
                d="M1900 2595 l0 -145 85 0 85 0 0 30 c0 29 -1 30 -50 30 -49 0 -50 1
-50 30 0 29 2 30 45 30 43 0 45 1 45 30 0 29 -2 30 -45 30 -41 0 -45 2 -45 25
0 23 3 25 50 25 49 0 50 1 50 30 l0 30 -85 0 -85 0 0 -145z"/>
        <path
                d="M2150 2595 l0 -145 85 0 c83 0 85 0 85 24 0 23 -5 25 -47 28 l-48 3
-3 118 -3 117 -34 0 -35 0 0 -145z"/>
        <path d="M2380 2595 l0 -145 35 0 35 0 0 145 0 145 -35 0 -35 0 0 -145z"/>
        <path
                d="M2520 2710 c0 -28 2 -30 40 -30 l40 0 0 -115 0 -115 35 0 35 0 0 114
0 115 38 3 c32 3 37 7 40 31 l3 27 -115 0 -116 0 0 -30z"/>
        <path
                d="M2810 2595 l0 -145 90 0 90 0 0 30 c0 30 -1 30 -55 30 -54 0 -55 0
-55 30 0 29 1 30 50 30 49 0 50 1 50 30 0 29 -1 30 -50 30 -47 0 -50 2 -50 25
0 24 3 25 55 25 54 0 55 0 55 30 l0 30 -90 0 -90 0 0 -145z"/>
        <path
                d="M3190 2595 l0 -145 35 0 35 0 0 60 0 60 55 0 55 0 0 -60 0 -60 35 0
35 0 0 145 0 145 -35 0 -35 0 0 -55 0 -55 -55 0 -55 0 0 55 0 55 -35 0 -35 0
0 -145z"/>
        <path
                d="M3880 2595 l0 -145 35 0 34 0 3 83 3 82 30 -80 c28 -73 33 -80 60
-83 29 -3 31 0 62 80 l32 83 0 -82 1 -83 35 0 35 0 0 145 0 145 -42 0 -43 0
-34 -88 c-18 -48 -37 -91 -41 -95 -4 -5 -25 35 -45 87 l-38 96 -44 0 -43 0 0
-145z"/>
        <path
                d="M4300 2595 l0 -145 85 0 85 0 0 30 c0 29 -1 30 -50 30 -49 0 -50 1
-50 30 0 29 2 30 45 30 43 0 45 1 45 30 0 29 -2 30 -45 30 -41 0 -45 2 -45 25
0 23 3 25 50 25 49 0 50 1 50 30 l0 30 -85 0 -85 0 0 -145z"/>
    </g>
</svg>